<svg xmlns="http://www.w3.org/2000/svg" viewBox="0 0 478.45 466.72"><defs><style>.cls-1{fill:#fff;}</style></defs><g id="Layer_2" data-name="Layer 2"><g id="BACKGROUND"><path class="cls-1" d="M148.59,166c-8.63,19.11-8.93,34.15,2.91,48.22,2.8,3.33,10.41,6.51,3.06,11.26-6.33,4.1-10.1,14.66-20.75,10a10.23,10.23,0,0,1-1.41-.91c-14.59-9.55-30.08-14.17-45-2.11-12.7,10.28-14,24.75-9.24,39.84,6.88,21.6,20.83,33.9,40,35.3,11.46.84,22.59-1,32.14-7.35,6.21-4.14,9.28-2.68,13.77,2.42a151.22,151.22,0,0,0,21.81,20.83c32.7,24.65,73.58,22.05,113.33-7,14.92-10.88,29.67-22,43.93-33.76,9.6-7.88,19.22-8.78,29-2.06,10.47,7.18,11.28,17.72,6.24,28.35-4.52,9.53-10.11,18.59-15.6,27.63-22.42,36.94-37.57,76.22-37.48,120,0,8.89-3.34,10-10.75,10q-82.42-.36-164.85-.11c-7.43,0-11.45.07-7.93-9.75,12.53-35-2.67-59.4-31.73-77.75-10.86-6.86-21.89-13.47-32.95-20C-7.34,309-25.37,206.91,37.68,131.71c33.17-39.56,74.79-65.28,127.17-70.77,11.41-1.19,20.17-4.87,24.94-16C204.89,9.87,233.36.2,269.32,0S340.83,2.12,376.25,8.3c52.66,9.2,82.24,40.24,97.24,91.33,9.86,33.6,6.39,57.15-23,78.25-21.73,15.59-41.68,33.76-63.91,48.93-6.74,4.59-9.63,4.57-13.68-3.12-7.6-14.43-14.45-27.85-11.06-45.68,3.11-16.32-6.09-21.76-22.82-16.55-15.38,4.79-27.24,15.14-39.5,24.84-27.36,21.64-57.72,30-92.69,24.31C180.16,206.28,162,192.29,148.59,166ZM290.93,12.55c-7.24.41-16.18,1-25.13,1.43C215,16.15,206,18.7,226.82,76.43c13.68,37.9,30.55,47.87,70.58,43.08,51-6.11,100.57-4.07,147.3,20.21,3.34,1.74,7.38,2.37,11.18,3,9.18,1.42,13.74-1,11.51-11.84-3.83-18.69-10.54-36.38-16.7-54.3-7.83-22.83-23.75-37.23-46-45.45C368.54,17.72,330.88,13.52,290.93,12.55Z"/></g></g></svg>